<svg width="12" height="18" viewBox="0 0 12 18" fill="none" xmlns="http://www.w3.org/2000/svg">
<path d="M0.81543 8.86169C0.81543 9.86612 1.02041 10.7578 1.43038 11.5367C1.84548 12.3157 2.422 12.9409 3.15994 13.4124C3.89789 13.8787 4.75626 14.1529 5.73507 14.2349V16.0259H2.88321C2.71923 16.0259 2.58086 16.0823 2.46812 16.195C2.35538 16.3078 2.29901 16.4461 2.29901 16.6101C2.29901 16.769 2.35538 16.9048 2.46812 17.0175C2.58086 17.1303 2.71923 17.1866 2.88321 17.1866H9.74765C9.91163 17.1866 10.05 17.1303 10.1627 17.0175C10.2755 16.9048 10.3319 16.769 10.3319 16.6101C10.3319 16.4461 10.2755 16.3078 10.1627 16.195C10.05 16.0823 9.91163 16.0259 9.74765 16.0259H6.89579V14.2349C7.8746 14.1529 8.73297 13.8787 9.47092 13.4124C10.2089 12.9409 10.7828 12.3157 11.1928 11.5367C11.6079 10.7578 11.8154 9.86612 11.8154 8.86169V7.30125C11.8154 7.14238 11.7591 7.00658 11.6463 6.89384C11.5336 6.7811 11.3978 6.72473 11.2389 6.72473C11.0749 6.72473 10.9366 6.7811 10.8238 6.89384C10.7111 7.00658 10.6547 7.14238 10.6547 7.30125V8.81557C10.6547 9.68676 10.4753 10.4503 10.1166 11.1063C9.75789 11.7622 9.25312 12.2721 8.60229 12.636C7.95659 12.9947 7.19558 13.1741 6.31927 13.1741C5.44296 13.1741 4.67939 12.9947 4.02857 12.636C3.37774 12.2721 2.87297 11.7622 2.51424 11.1063C2.15552 10.4503 1.97616 9.68676 1.97616 8.81557V7.30125C1.97616 7.14238 1.91979 7.00658 1.80704 6.89384C1.6943 6.7811 1.55594 6.72473 1.39195 6.72473C1.23309 6.72473 1.09728 6.7811 0.984542 6.89384C0.871801 7.00658 0.81543 7.14238 0.81543 7.30125V8.86169ZM6.31927 11.5214C6.82661 11.5214 7.27245 11.4035 7.6568 11.1678C8.04627 10.932 8.34606 10.6066 8.55617 10.1915C8.7714 9.77131 8.87902 9.28704 8.87902 8.7387V3.59615C8.87902 3.04781 8.7714 2.5661 8.55617 2.151C8.34606 1.73078 8.04627 1.40281 7.6568 1.16708C7.27245 0.931343 6.82661 0.813477 6.31927 0.813477C5.80681 0.813477 5.35841 0.931343 4.97406 1.16708C4.58971 1.40281 4.28992 1.73078 4.07469 2.151C3.85945 2.5661 3.75184 3.04781 3.75184 3.59615V8.7387C3.75184 9.28704 3.85945 9.77131 4.07469 10.1915C4.28992 10.6066 4.58971 10.932 4.97406 11.1678C5.35841 11.4035 5.80681 11.5214 6.31927 11.5214Z" fill="#8E8E93"/>
</svg>
