<svg width="16" height="16" viewBox="0 0 16 16" fill="none" xmlns="http://www.w3.org/2000/svg">
<path d="M6.56787 12.8767C7.9458 12.8767 9.23242 12.4285 10.2783 11.6814L14.2129 15.616C14.3955 15.7986 14.6362 15.8899 14.8853 15.8899C15.4248 15.8899 15.8149 15.4749 15.8149 14.9436C15.8149 14.6946 15.7319 14.4622 15.5493 14.2795L11.6396 10.3616C12.4614 9.28247 12.9512 7.94604 12.9512 6.49341C12.9512 2.98218 10.0791 0.110107 6.56787 0.110107C3.04834 0.110107 0.18457 2.98218 0.18457 6.49341C0.18457 10.0046 3.04834 12.8767 6.56787 12.8767ZM6.56787 11.4988C3.82031 11.4988 1.5625 9.23267 1.5625 6.49341C1.5625 3.75415 3.82031 1.48804 6.56787 1.48804C9.30713 1.48804 11.5732 3.75415 11.5732 6.49341C11.5732 9.23267 9.30713 11.4988 6.56787 11.4988Z" fill="#8E8E93"/>
</svg>
