<svg width="24" height="24" viewBox="0 0 24 24" fill="none" xmlns="http://www.w3.org/2000/svg">
<path d="M21.0002 6.72998C20.9802 6.72998 20.9502 6.72998 20.9202 6.72998C15.6302 6.19998 10.3502 5.99998 5.12016 6.52998L3.08016 6.72998C2.66016 6.76998 2.29016 6.46998 2.25016 6.04998C2.21016 5.62998 2.51016 5.26998 2.92016 5.22998L4.96016 5.02998C10.2802 4.48998 15.6702 4.69998 21.0702 5.22998C21.4802 5.26998 21.7802 5.63998 21.7402 6.04998C21.7102 6.43998 21.3802 6.72998 21.0002 6.72998Z" fill="#F88379"/>
<path d="M8.49977 5.72C8.45977 5.72 8.41977 5.72 8.36977 5.71C7.96977 5.64 7.68977 5.25 7.75977 4.85L7.97977 3.54C8.13977 2.58 8.35977 1.25 10.6898 1.25H13.3098C15.6498 1.25 15.8698 2.63 16.0198 3.55L16.2398 4.85C16.3098 5.26 16.0298 5.65 15.6298 5.71C15.2198 5.78 14.8298 5.5 14.7698 5.1L14.5498 3.8C14.4098 2.93 14.3798 2.76 13.3198 2.76H10.6998C9.63977 2.76 9.61977 2.9 9.46977 3.79L9.23977 5.09C9.17977 5.46 8.85977 5.72 8.49977 5.72Z" fill="#F88379"/>
<path fill-rule="evenodd" clip-rule="evenodd" d="M3.5 20.1876V18.99C3.5 18.58 3.16 18.24 2.75 18.24C2.34 18.24 2 18.58 2 18.99V21.99C2 22.4 2.34 22.74 2.75 22.74H5.75C6.16 22.74 6.5 22.4 6.5 21.99C6.5 21.58 6.16 21.24 5.75 21.24H4.56757L9.28006 16.5275C9.57006 16.2375 9.57006 15.7575 9.28006 15.4675C8.99006 15.1775 8.51006 15.1775 8.22006 15.4675L3.5 20.1876Z" fill="#F88379"/>
<path d="M9.5 22C9.5 22.4142 9.83579 22.75 10.25 22.75H15.2099C18.6999 22.75 18.8399 20.82 18.9499 19.26L19.6499 6.29994C19.6799 5.87994 19.3599 5.52994 18.9499 5.49994C18.5399 5.47994 18.1799 5.78994 18.1499 6.19994L17.4499 19.16C17.3499 20.68 17.3099 21.25 15.2099 21.25H10.25C9.83579 21.25 9.5 21.5858 9.5 22Z" fill="#F88379"/>
<path d="M4.6444 12.8226C4.68176 13.2069 5.00472 13.4999 5.39076 13.4999C5.83344 13.4999 6.17979 13.1185 6.13714 12.6778L5.51025 6.19994C5.48025 5.78994 5.13025 5.47994 4.71025 5.49994C4.30025 5.52994 3.98025 5.88994 4.01025 6.29994L4.6444 12.8226Z" fill="#F88379"/>
</svg>
