<svg width="86" height="86" viewBox="0 0 86 86" fill="none" xmlns="http://www.w3.org/2000/svg">
<path d="M70.2477 15.498C70.4624 15.9012 70.0373 16.3365 69.6031 16.1943C69.216 16.0675 68.8288 15.9622 68.4416 15.8742C66.7574 15.3726 64.8941 15.1217 62.9949 15.1217H50.5238C50.3666 15.1217 50.2185 15.0478 50.1241 14.9221L45.6158 8.92258C45.3956 8.61069 45.166 8.30819 44.9271 8.01027C44.6583 7.67516 44.8906 7.16675 45.3201 7.16675H56.3299C62.3552 7.16675 67.6073 10.5375 70.2477 15.498Z" fill="#292D32"/>
<rect x="31" y="50" width="23" height="14" fill="white"/>
<path d="M72.1682 23.4351C70.6273 22.3242 68.8715 21.5001 66.9723 21.0342C65.6823 20.6759 64.3565 20.4967 62.9948 20.4967H49.6648C47.5865 20.4967 47.4432 20.3176 46.3323 18.8484L41.3157 12.1834C38.9865 9.06592 37.159 7.16675 31.3182 7.16675H23.0048C14.2615 7.16675 7.1665 14.2617 7.1665 23.0051V62.9951C7.1665 71.7384 14.2615 78.8334 23.0048 78.8334H62.9948C71.7382 78.8334 78.8332 71.7384 78.8332 62.9951V36.3351C78.8332 30.9959 76.2173 26.3017 72.1682 23.4351ZM51.564 58.5518H34.3998C33.0023 58.5518 31.9273 57.4409 31.9273 56.0434C31.9273 54.6818 33.0023 53.5351 34.3998 53.5351H51.564C52.9615 53.5351 54.0723 54.6818 54.0723 56.0434C54.0723 57.4409 52.9615 58.5518 51.564 58.5518Z" fill="#292D32"/>
</svg>
